# xmcd
#
# Track frame offsets:
# 150
# 20635
# 33847
# 60632
# 64257
# 80055
# 89757
# 99202
# 112990
# 128950
# 131917
# 152490
# 161935
# 189027
# 201935
# 236505
#
# Disc length: 3234 seconds
#
#
# Revision: 2
# Processed by: cddbd v1.4PL0 Copyright (c) Steve Scherf et al.
# Submitted via: FreeRIP 2.00 
#
DISCID=d80ca010
DTITLE=Eugene Chadbourne and Evan Johns - Terror Has Some Strange Kinfolk
DYEAR=1992
DGENRE=Bluegrass
TTITLE0=Achey Rakey Heart
TTITLE1=Redneck Jazz
TTITLE2=Sail My Ship Alone
TTITLE3=I Gotta Pee
TTITLE4=I Cut the Wrong Man
TTITLE5=George Bush's Bones Jig
TTITLE6=Desert Storm Chewing Gum
TTITLE7=Let 'Em Drink While They're Young
TTITLE8=Mister Jones
TTITLE9=Missing Engineer
TTITLE10=Killbillies
TTITLE11=Got the Blues and Can't Be Satisfied
TTITLE12=Checkers of Blood
TTITLE13=There Was Gloom
TTITLE14=Land of Use to Be
TTITLE15=Living in the Country
EXTD=Alternative Tentacles Records \nVIRUS 119CD
EXTT0=
EXTT1=
EXTT2=
EXTT3=
EXTT4=
EXTT5=
EXTT6=
EXTT7=
EXTT8=
EXTT9=
EXTT10=
EXTT11=
EXTT12=
EXTT13=
EXTT14=
EXTT15=
PLAYORDER=
